<svg id="Basement_Image" data-name="Basement Image" xmlns="http://www.w3.org/2000/svg" viewBox="0 0 146.63 176.13"><defs><style>.cls-1,.cls-2{fill:none;stroke:#000;stroke-linejoin:round;}.cls-1{stroke-width:2px;}.cls-2{stroke-width:0.25px;}</style></defs>
<g id="M_s_RES_BSMT" data-name="M&apos;s RES BSMT"><polygon class="cls-1" points="23.31 1 65.7 1 65.7 32.08 71.1 32.08 71.1 53.02 66.02 53.02 66.02 110.74 58.09 117.41 50.16 117.41 50.16 132.31 117.72 132.31 117.72 127.56 145.63 127.56 145.63 175.13 102.18 175.13 102.18 168.15 62.22 168.15 62.22 162.13 1 162.13 1 153.56 4.17 153.56 4.17 139.29 10.2 139.29 10.2 128.82 21.3 128.82 21.3 132.63 33.35 132.63 33.35 128.19 26.69 128.19 26.69 116.77 23.2 116.77 23.2 101.55 19.08 101.55 19.08 81.56 23.2 81.56 23.2 52.38 18.45 52.38 18.45 31.77 23.2 31.77 23.31 1"/></g><rect class="cls-2" x="23.68" y="1.32" width="15.11" height="17.33"/><rect class="cls-2" x="23.52" y="18.8" width="15.28" height="17.56"/>
<g id="Layer_3" data-name="Layer 3"><polygon class="cls-2" points="38.8 36.37 38.8 52.62 24.23 52.62 24.23 51.67 18.87 51.67 18.87 31.51 23.52 31.51 23.52 36.37 38.8 36.37"/></g>
<g id="Layer_4" data-name="Layer 4"><rect class="cls-2" x="23.39" y="52.62" width="15.41" height="29.18"/></g>
<g id="Layer_5" data-name="Layer 5"><rect class="cls-2" x="19.08" y="81.8" width="19.72" height="20.62"/></g>
<g id="Layer_6" data-name="Layer 6"><rect class="cls-2" x="24" y="102.42" width="14.8" height="14.91"/></g>
<g id="Layer_7" data-name="Layer 7"><polyline class="cls-2" points="50.4 93.85 66.02 93.85 66.02 110.74 58.09 117.41 50.16 117.41 50.16 93.85 66.02 93.85"/></g>
<g id="Layer_8" data-name="Layer 8"><rect class="cls-2" x="50.16" y="78.39" width="15.86" height="15.46"/></g>
<g id="Layer_9" data-name="Layer 9"><rect class="cls-2" x="50.16" y="63.01" width="15.86" height="15.38"/></g>
<g id="Layer_10" data-name="Layer 10"><rect class="cls-2" x="50.16" y="52.62" width="15.86" height="10.39"/></g>
<g id="Layer_11" data-name="Layer 11"><polygon class="cls-2" points="50.16 52.62 50.16 36.37 66.02 36.37 66.02 33.11 70.3 33.11 70.3 52.62 50.16 52.62"/><path class="cls-2" d="M94,417.36" transform="translate(-43.79 -380.99)"/></g>
<g id="Layer_12" data-name="Layer 12"><rect class="cls-2" x="50.16" y="18.66" width="15.54" height="17.71"/></g>
<g id="Layer_13" data-name="Layer 13"><rect class="cls-2" x="50.16" y="1.32" width="15.54" height="17.33"/></g></svg>